<?xml version="1.0" encoding="iso-8859-1"?>
<!-- Generator: Adobe Illustrator 19.0.0, SVG Export Plug-In . SVG Version: 6.00 Build 0)  -->
<svg version="1.1" id="Capa_1" xmlns="http://www.w3.org/2000/svg" xmlns:xlink="http://www.w3.org/1999/xlink" x="0px" y="0px"
	 viewBox="0 0 394.825 394.825" style="enable-background:new 0 0 394.825 394.825;" xml:space="preserve">
<g>
	<path id="Planet-2" d="M385.008,302.904c-8.754,14.788-31.167,17.891-48.422,17.891c-12.375,0-26.17-1.567-40.927-4.491
		c29.02-24.011,49.064-58.447,54.48-97.56c19.149,20.581,32.173,40.495,36.775,57.664
		C389.758,287.043,389.123,295.958,385.008,302.904 M287.694,314.645c-39.168-8.871-84.518-26.984-129.023-52.05
		c-43.487-24.492-81.335-53.055-108.498-80.761c7.81-74.345,70.86-132.484,147.241-132.484c81.637,0,148.062,66.424,148.062,148.062
		C345.475,245.086,322.797,287.543,287.694,314.645 M197.414,345.472c-81.644,0-148.062-66.418-148.062-148.062
		c0-2.505,0.062-4.991,0.185-7.465c26.885,26.614,63.358,53.95,106.111,78.028c44.024,24.788,87.751,42.191,125.587,51.396
		C257.385,335.817,228.513,345.472,197.414,345.472 M7.914,118.414c-2.85-10.63-2.209-19.544,1.9-26.491
		c8.754-14.788,31.167-17.897,48.428-17.897c12.357,0,26.158,1.61,40.89,4.522c-28.995,24.005-49.027,58.417-54.444,97.505
		C25.558,155.485,12.51,135.576,7.914,118.414 M351.034,210.718c0.376-4.386,0.611-8.816,0.611-13.307
		c0-85.179-69.052-154.231-154.231-154.231c-34.461,0-66.27,11.308-91.946,30.402c-17.317-3.751-33.283-5.725-47.232-5.725
		c-26.151,0-45.35,6.768-53.728,20.92c-13.134,22.185,3.171,57.744,39.28,95.327c-0.37,4.393-0.605,8.822-0.605,13.307
		c0,85.179,69.052,154.231,154.231,154.231c34.443,0,66.251-11.302,91.922-30.383c17.336,3.757,33.289,5.706,47.25,5.706
		c26.157,0,45.35-6.761,53.734-20.92C403.448,283.86,387.142,248.301,351.034,210.718 M302.291,339.303
		c-6.817,0-12.338,5.528-12.338,12.338c0,6.817,5.521,12.338,12.338,12.338c6.811,0,12.339-5.521,12.339-12.338
		C314.629,344.831,309.102,339.303,302.291,339.303 M49.352,296.118c-3.412,0-6.169,2.764-6.169,6.169
		c0,3.412,2.758,6.169,6.169,6.169c3.405,0,6.169-2.758,6.169-6.169C55.522,298.882,52.758,296.118,49.352,296.118 M259.106,271.441
		c-3.412,0-6.169,2.764-6.169,6.169c0,3.412,2.758,6.169,6.169,6.169c3.405,0,6.169-2.758,6.169-6.169
		C265.275,274.205,262.512,271.441,259.106,271.441 M316.381,57.819l14.245,3.22c1.197,0.29,2.135,1.123,2.468,2.19l3.911,15.213
		c0.642,2.338,3.955,2.338,4.596,0l3.917-15.213c0.327-1.067,1.265-1.9,2.462-2.19l14.251-3.22c2.332-0.642,2.332-3.954,0-4.596
		l-14.251-3.22c-1.197-0.296-2.135-1.123-2.462-2.19l-3.917-15.219c-0.642-2.332-3.955-2.332-4.596,0l-3.917,15.219
		c-0.327,1.061-1.265,1.894-2.462,2.19l-14.245,3.214C314.043,53.865,314.043,57.178,316.381,57.819"/>
</g>
<g>
</g>
<g>
</g>
<g>
</g>
<g>
</g>
<g>
</g>
<g>
</g>
<g>
</g>
<g>
</g>
<g>
</g>
<g>
</g>
<g>
</g>
<g>
</g>
<g>
</g>
<g>
</g>
<g>
</g>
</svg>
