<?xml version="1.0" encoding="iso-8859-1"?>
<!-- Generator: Adobe Illustrator 19.0.0, SVG Export Plug-In . SVG Version: 6.00 Build 0)  -->
<svg version="1.1" id="Layer_1" xmlns="http://www.w3.org/2000/svg" xmlns:xlink="http://www.w3.org/1999/xlink" x="0px" y="0px"
	 viewBox="0 0 512.183 512.183" style="enable-background:new 0 0 512.183 512.183;" xml:space="preserve">
<g>
	<g>
		<g>
			<path d="M392.505,337.198c0-7.057-5.743-12.8-12.8-12.8s-12.8,5.743-12.8,12.8c0,7.057,5.743,12.8,12.8,12.8
				S392.505,344.255,392.505,337.198z"/>
			<path d="M290.105,392.664c0-18.825-15.309-34.133-34.133-34.133s-34.133,15.309-34.133,34.133s15.309,34.133,34.133,34.133
				S290.105,411.489,290.105,392.664z M238.905,392.664c0-9.412,7.654-17.067,17.067-17.067c9.412,0,17.067,7.654,17.067,17.067
				c0,9.412-7.654,17.067-17.067,17.067C246.559,409.731,238.905,402.077,238.905,392.664z"/>
			<path d="M468.767,238.143c-4.71,0.205-8.363,4.19-8.158,8.9c3.9,87.834-48.58,168.218-130.586,200.03
				c-82.022,31.812-174.976,7.834-231.322-59.648c-3.004-3.618-8.397-4.113-12.015-1.084c-3.618,3.021-4.104,8.397-1.084,12.015
				c43.059,51.576,105.83,79.684,170.274,79.684c26.923,0,54.136-4.907,80.307-15.061c88.849-34.458,145.707-121.54,141.474-216.695
				C477.454,241.565,473.017,238.015,468.767,238.143z"/>
			<path d="M98.105,273.198c-7.057,0-12.8,5.743-12.8,12.8c0,7.057,5.743,12.8,12.8,12.8s12.8-5.743,12.8-12.8
				C110.905,278.941,105.162,273.198,98.105,273.198z"/>
			<path d="M349.838,170.798c-14.114,0-25.6,11.486-25.6,25.6s11.486,25.6,25.6,25.6c14.114,0,25.6-11.486,25.6-25.6
				S363.952,170.798,349.838,170.798z M349.838,204.931c-4.71,0-8.533-3.831-8.533-8.533c0-4.702,3.823-8.533,8.533-8.533
				c4.71,0,8.533,3.831,8.533,8.533C358.372,201.1,354.549,204.931,349.838,204.931z"/>
			<path d="M162.105,136.664c-23.526,0-42.667,19.14-42.667,42.667c0,23.526,19.14,42.667,42.667,42.667
				c23.526,0,42.667-19.14,42.667-42.667C204.772,155.805,185.631,136.664,162.105,136.664z M162.105,204.931
				c-14.114,0-25.6-11.486-25.6-25.6s11.486-25.6,25.6-25.6s25.6,11.486,25.6,25.6S176.219,204.931,162.105,204.931z"/>
			<path d="M277.305,111.064c-7.057,0-12.8,5.743-12.8,12.8s5.743,12.8,12.8,12.8c7.057,0,12.8-5.743,12.8-12.8
				S284.362,111.064,277.305,111.064z"/>
			<path d="M510.547,157.392c-3.891-10.052-14.08-16.606-30.285-19.482c-4.625-0.887-9.062,2.261-9.89,6.904s2.27,9.071,6.912,9.89
				c9.634,1.715,15.804,4.864,17.348,8.858c2.278,5.871-3.516,18.159-24.124,35.942c-2.031-7.706-4.489-15.343-7.697-23.603
				c-21.427-55.253-63.087-98.85-117.316-122.769c-54.212-23.919-114.5-25.284-169.754-3.849
				C120.479,70.71,76.883,112.37,52.964,166.599c-23.919,54.221-25.284,114.517-3.849,169.762
				c3.26,8.431,6.656,15.872,10.445,23.066c-27.187,0.879-39.714-4.224-41.984-10.069c-1.673-4.301,0.777-11.358,6.545-18.876
				c2.876-3.738,2.167-9.097-1.57-11.964c-3.746-2.867-9.105-2.15-11.964,1.579c-9.711,12.655-12.885,25.233-8.926,35.43
				c5.436,14.029,22.938,21.069,52.19,21.069c11.827,0,25.583-1.152,41.233-3.456c49.92-7.356,115.823-26.308,185.574-53.367
				c69.572-26.982,130.978-57.549,172.902-86.059C499.027,202.789,518.192,177.112,510.547,157.392z M443.969,219.6
				c-40.892,27.802-101.077,57.728-169.481,84.267c-68.6,26.607-133.188,45.21-181.888,52.386
				c-5.077,0.751-9.788,1.323-14.293,1.801c-5.043-8.695-9.25-17.468-13.278-27.861c-19.789-50.995-18.526-106.65,3.55-156.706
				s62.328-88.516,113.323-108.297c51.012-19.78,106.65-18.517,156.706,3.558c50.057,22.076,88.516,62.327,108.288,113.323
				c3.985,10.249,6.758,19.456,8.883,29.124C452.119,213.908,448.245,216.69,443.969,219.6z"/>
			<path d="M234.638,239.064c-11.768,0-21.333,9.574-21.333,21.333c0,11.759,9.566,21.333,21.333,21.333
				c11.767,0,21.333-9.574,21.333-21.333C255.972,248.639,246.406,239.064,234.638,239.064z M234.638,264.664
				c-2.347,0-4.267-1.911-4.267-4.267s1.92-4.267,4.267-4.267c2.347,0,4.267,1.911,4.267,4.267S236.985,264.664,234.638,264.664z"/>
		</g>
	</g>
</g>
<g>
</g>
<g>
</g>
<g>
</g>
<g>
</g>
<g>
</g>
<g>
</g>
<g>
</g>
<g>
</g>
<g>
</g>
<g>
</g>
<g>
</g>
<g>
</g>
<g>
</g>
<g>
</g>
<g>
</g>
</svg>
